Coordinates
version=1
nRows=38
nColumns=12
inDegrees=yes

Units are S.I. units (second, meters, Newtons, ...)
Angles are in degrees

endheader
time	SC_y	SC_z	SC_x	AC_y	AC_z	AC_x	GH_y	GH_z	GH_yy	EL_x	PS_y
       0.0              -30.92          23.97          60.96          62.28         -11.02         -10.08          170.4         -7.892         -90.04          54.57          27.27
   0.04351              -30.93          23.97          60.96          62.28         -11.02         -10.07          170.4         -7.883         -90.05          54.56          27.28
   0.08703              -30.93          23.97          60.96          62.28         -11.02         -10.07          170.4         -7.875         -90.05          54.56          27.29
    0.1305              -30.94          23.97          60.96          62.28         -11.02         -10.07          170.4         -7.865         -90.06          54.55           27.3
    0.1741              -30.94          23.97          60.96          62.28         -11.02         -10.06          170.4         -7.855         -90.07          54.55          27.31
    0.2176              -30.95          23.97          60.96          62.28         -11.02         -10.06          170.4         -7.845         -90.08          54.54          27.32
    0.2611              -30.95          23.97          60.96          62.28         -11.02         -10.05          170.4         -7.833         -90.09          54.53          27.33
    0.3046              -30.96          23.97          60.96          62.28         -11.02         -10.05          170.4         -7.821          -90.1          54.53          27.34
    0.3481              -30.96          23.97          60.95          62.28         -11.02         -10.04          170.4         -7.808         -90.12          54.52          27.35
    0.3916              -30.97          23.97          60.95          62.27         -11.02         -10.04          170.4         -7.794         -90.13          54.51          27.36
    0.4351              -30.98          23.97          60.95          62.27         -11.01         -10.03          170.3         -7.779         -90.14           54.5          27.37
    0.4786              -30.98          23.97          60.95          62.27         -11.01         -10.03          170.3         -7.763         -90.16          54.49          27.39
    0.5222              -30.99          23.97          60.95          62.27         -11.01         -10.02          170.3         -7.746         -90.17          54.48           27.4
    0.5657               -31.0          23.97          60.95          62.27         -11.01         -10.01          170.3         -7.727         -90.19          54.47          27.42
    0.6092              -31.01          23.98          60.95          62.27         -11.01          -10.0          170.3         -7.707         -90.21          54.46          27.44
    0.6527              -31.02          23.98          60.95          62.27         -11.01         -9.994          170.3         -7.685         -90.23          54.44          27.46
    0.6962              -31.03          23.98          60.94          62.26         -11.01         -9.985          170.3         -7.661         -90.25          54.43          27.48
    0.7397              -31.05          23.98          60.94          62.26         -11.01         -9.975          170.3         -7.635         -90.27          54.41           27.5
    0.7832              -31.06          23.98          60.94          62.26         -11.01         -9.964          170.3         -7.606          -90.3           54.4          27.53
    0.8268              -31.07          23.98          60.94          62.26         -11.01         -9.952          170.2         -7.575         -90.33          54.38          27.55
    0.8703              -31.09          23.98          60.94          62.26         -11.01         -9.938          170.2         -7.541         -90.36          54.36          27.58
    0.9138              -31.11          23.98          60.93          62.25          -11.0         -9.923          170.2         -7.504         -90.39          54.33          27.62
    0.9573              -31.13          23.99          60.93          62.25          -11.0         -9.907          170.2         -7.462         -90.43          54.31          27.65
     1.001              -31.15          23.99          60.93          62.25          -11.0         -9.889          170.2         -7.416         -90.47          54.28          27.69
     1.044              -31.17          23.99          60.92          62.24          -11.0         -9.869          170.1         -7.365         -90.52          54.25          27.74
     1.088               -31.2          23.99          60.92          62.24          -11.0         -9.847          170.1         -7.308         -90.57          54.22          27.79
     1.131              -31.23           24.0          60.92          62.23         -10.99         -9.822          170.1         -7.244         -90.63          54.18          27.85
     1.175              -31.26           24.0          60.91          62.23         -10.99         -9.794          170.0         -7.172          -90.7          54.13          27.91
     1.218               -31.3           24.0           60.9          62.22         -10.99         -9.762          170.0          -7.09         -90.77          54.08          27.98
     1.262              -31.35          24.01           60.9          62.22         -10.98         -9.726          169.9         -6.998         -90.86          54.03          28.06
     1.305               -31.4          24.01          60.89          62.21         -10.98         -9.684          169.9         -6.892         -90.95          53.96          28.16
     1.349              -31.45          24.02          60.88           62.2         -10.98         -9.637          169.8         -6.771         -91.07          53.89          28.26
     1.392              -31.52          24.03          60.87          62.19         -10.97         -9.582          169.7         -6.632         -91.19          53.81          28.39
     1.436               -31.6          24.03          60.86          62.18         -10.96         -9.519          169.6         -6.469         -91.34          53.71          28.53
     1.479              -31.69          24.04          60.85          62.17         -10.96         -9.445          169.5         -6.279         -91.52          53.59           28.7
     1.523              -31.79          24.05          60.83          62.15         -10.95         -9.357          169.4         -6.055         -91.72          53.46          28.89
     1.566              -31.92          24.06          60.81          62.13         -10.94         -9.253          169.3         -5.789         -91.96           53.3          29.13
      1.61              -32.07          24.08          60.79          62.11         -10.93         -9.128          169.1          -5.47         -92.26           53.1          29.41
